<svg width="500" height="500" xmlns="http://www.w3.org/2000/svg" t="1685339750585" class="icon" version="1.1" p-id="3294">
 <g>
  <title>Layer 1</title>
  <path d="m160.80336,228.40263l177.01586,0l0,-67.57791q0,-37.30864 -25.93006,-63.70627t-62.57787,-26.39763t-62.57787,26.39763t-25.93006,63.70627l0,67.57791l0,0zm287.65078,33.78896l0,202.73375q0,14.07874 -9.68056,23.93385t-23.50992,9.85512l-331.90475,0q-13.82936,0 -23.50992,-9.85512t-9.68056,-23.93385l0,-202.73375q0,-14.07874 9.68056,-23.93385t23.50992,-9.85512l11.0635,0l0,-67.57791q0,-64.76217 45.6369,-111.22199t109.25198,-46.45982t109.25198,46.45982t45.6369,111.22199l0,67.57791l11.06349,0q13.82936,0 23.50992,9.85512t9.68056,23.93385l0,0z" p-id="3295" id="svg_1"/>
 </g>

</svg>